# 3ds Max Wavefront OBJ Exporter v0.97b - (c)2007 guruware
# File Created: 27.04.2019 09:00:51

mtllib bunnypen.mtl

#
# object Pen
#

v  -5.0000 -0.1000 5.0000
v  -5.0000 -0.1000 -5.0000
v  5.0000 -0.1000 -5.0000
v  5.0000 -0.1000 5.0000
v  5.0000 0.4000 5.0000
v  -5.0000 0.4000 5.0000
v  -5.0000 0.4000 -5.0000
v  5.0000 0.4000 -5.0000
v  -4.7500 0.4000 4.7500
v  -4.7500 0.4000 -4.7500
v  4.7500 0.4000 -4.7500
v  4.7500 0.4000 4.7500
v  -4.7500 0.0000 4.7500
v  4.7500 0.0000 4.7500
v  4.7500 0.0000 -4.7500
v  -4.7500 0.0000 -4.7500
# 16 vertices

vn 0.0000 -1.0000 -0.0000
vn 0.0000 -1.0000 -0.0000
vn 0.0000 -1.0000 -0.0000
vn 0.0000 -1.0000 -0.0000
vn 0.0000 -1.0000 -0.0000
vn 0.0000 -1.0000 -0.0000
vn 0.0000 0.0000 1.0000
vn 0.0000 0.0000 1.0000
vn 0.0000 0.0000 1.0000
vn 0.0000 0.0000 1.0000
vn 0.0000 0.0000 1.0000
vn 0.0000 0.0000 1.0000
vn -1.0000 0.0000 -0.0000
vn -1.0000 0.0000 -0.0000
vn -1.0000 0.0000 -0.0000
vn -1.0000 0.0000 -0.0000
vn -1.0000 0.0000 -0.0000
vn -1.0000 0.0000 -0.0000
vn 0.0000 0.0000 -1.0000
vn 0.0000 0.0000 -1.0000
vn 0.0000 0.0000 -1.0000
vn 0.0000 0.0000 -1.0000
vn 0.0000 0.0000 -1.0000
vn 0.0000 0.0000 -1.0000
vn 1.0000 0.0000 -0.0000
vn 1.0000 0.0000 -0.0000
vn 1.0000 0.0000 -0.0000
vn 1.0000 0.0000 -0.0000
vn 1.0000 0.0000 -0.0000
vn 1.0000 0.0000 -0.0000
vn 0.0000 1.0000 -0.0000
vn 0.0000 1.0000 -0.0000
vn 0.0000 1.0000 -0.0000
vn 0.0000 1.0000 -0.0000
vn 0.0000 1.0000 -0.0000
vn 0.0000 1.0000 -0.0000
vn 0.0000 1.0000 -0.0000
vn 0.0000 1.0000 -0.0000
vn 0.0000 1.0000 -0.0000
vn 0.0000 1.0000 -0.0000
vn 0.0000 1.0000 -0.0000
vn 0.0000 1.0000 -0.0000
vn 0.0000 1.0000 -0.0000
vn 0.0000 1.0000 -0.0000
vn 0.0000 1.0000 -0.0000
vn 0.0000 1.0000 -0.0000
vn 0.0000 1.0000 -0.0000
vn 0.0000 1.0000 -0.0000
vn 0.0000 1.0000 -0.0000
vn 0.0000 1.0000 -0.0000
vn 0.0000 1.0000 -0.0000
vn 0.0000 1.0000 -0.0000
vn 0.0000 1.0000 -0.0000
vn 0.0000 1.0000 -0.0000
vn 0.0000 1.0000 -0.0000
vn 0.0000 1.0000 -0.0000
vn 0.0000 1.0000 -0.0000
vn 0.0000 1.0000 -0.0000
vn 0.0000 1.0000 -0.0000
vn 0.0000 1.0000 -0.0000
vn 0.0000 0.0000 -1.0000
vn 0.0000 0.0000 -1.0000
vn 0.0000 0.0000 -1.0000
vn 0.0000 0.0000 -1.0000
vn 0.0000 0.0000 -1.0000
vn 0.0000 0.0000 -1.0000
vn 1.0000 0.0000 -0.0000
vn 1.0000 0.0000 -0.0000
vn 1.0000 0.0000 -0.0000
vn 1.0000 0.0000 -0.0000
vn 1.0000 0.0000 -0.0000
vn 1.0000 0.0000 -0.0000
vn 0.0000 0.0000 1.0000
vn 0.0000 0.0000 1.0000
vn 0.0000 0.0000 1.0000
vn 0.0000 0.0000 1.0000
vn 0.0000 0.0000 1.0000
vn 0.0000 0.0000 1.0000
vn -1.0000 0.0000 -0.0000
vn -1.0000 0.0000 -0.0000
vn -1.0000 0.0000 -0.0000
vn -1.0000 0.0000 -0.0000
vn -1.0000 0.0000 -0.0000
vn -1.0000 0.0000 -0.0000
# 84 vertex normals

vt 2.4634 0.9268 -0.4634
vt 2.4634 0.9268 2.4634
vt 2.4634 0.9268 2.4634
vt -0.4634 0.9268 2.4634
vt 2.4634 -0.4634 1.0732
vt -0.4634 -0.4634 1.0732
vt -0.4634 2.4634 1.0732
vt 2.4634 2.4634 1.0732
vt -0.3902 1.0732 -0.3902
vt -0.3902 1.0732 2.3902
vt -0.3902 1.0732 2.3902
vt 2.3902 1.0732 2.3902
vt -0.3902 0.9561 -0.3902
vt 2.3902 0.9561 2.3902
vt -0.3902 0.9561 2.3902
vt -0.3902 0.9561 2.3902
vt 2.4634 2.4634 0.9268
vt -0.4634 2.4634 0.9268
vt -0.4634 -0.4634 0.9268
vt -0.4634 -0.4634 0.9268
vt 2.4634 -0.4634 0.9268
vt 2.4634 2.4634 0.9268
vt 2.4634 0.9268 -0.4634
vt 2.4634 1.0732 -0.4634
vt -0.4634 1.0732 -0.4634
vt -0.4634 1.0732 -0.4634
vt -0.4634 0.9268 -0.4634
vt 2.4634 0.9268 -0.4634
vt 2.4634 0.9268 -0.4634
vt 2.4634 1.0732 -0.4634
vt -0.4634 1.0732 -0.4634
vt -0.4634 1.0732 -0.4634
vt -0.4634 0.9268 -0.4634
vt 2.4634 0.9268 2.4634
vt 2.4634 1.0732 2.4634
vt -0.4634 1.0732 2.4634
vt -0.4634 1.0732 2.4634
vt -0.4634 0.9268 2.4634
vt 2.4634 0.9268 2.4634
vt 2.4634 1.0732 2.4634
vt -0.4634 1.0732 2.4634
vt -0.4634 1.0732 2.4634
vt 2.3902 -0.3902 1.0732
vt -0.3902 -0.3902 1.0732
vt -0.4634 -0.4634 1.0732
vt 2.3902 -0.3902 1.0732
vt -0.4634 -0.4634 1.0732
vt 2.4634 -0.4634 1.0732
vt 2.3902 2.3902 1.0732
vt 2.3902 -0.3902 1.0732
vt 2.4634 -0.4634 1.0732
vt 2.3902 2.3902 1.0732
vt 2.4634 2.4634 1.0732
vt -0.3902 2.3902 1.0732
vt 2.3902 2.3902 1.0732
vt 2.4634 2.4634 1.0732
vt -0.3902 2.3902 1.0732
vt -0.4634 2.4634 1.0732
vt -0.3902 -0.3902 1.0732
vt -0.3902 2.3902 1.0732
vt -0.4634 2.4634 1.0732
vt -0.3902 -0.3902 1.0732
vt 2.3902 -0.3902 0.9561
vt 2.3902 2.3902 0.9561
vt -0.3902 2.3902 0.9561
vt -0.3902 2.3902 0.9561
vt -0.3902 -0.3902 0.9561
vt 2.3902 -0.3902 0.9561
vt -0.3902 1.0732 -0.3902
vt -0.3902 0.9561 -0.3902
vt 2.3902 0.9561 -0.3902
vt 2.3902 0.9561 -0.3902
vt 2.3902 1.0732 -0.3902
vt -0.3902 1.0732 -0.3902
vt -0.3902 1.0732 -0.3902
vt 2.3902 0.9561 -0.3902
vt 2.3902 0.9561 -0.3902
vt 2.3902 1.0732 -0.3902
vt -0.3902 1.0732 2.3902
vt 2.3902 0.9561 2.3902
vt 2.3902 0.9561 2.3902
vt 2.3902 1.0732 2.3902
vt -0.3902 1.0732 2.3902
vt 2.3902 0.9561 2.3902
# 84 texture coords

o Pen
g Pen
usemtl bunnypen
s off
f 2/17/1 3/18/2 4/19/3 
f 4/20/4 1/21/5 2/22/6 
f 4/23/7 5/24/8 6/25/9 
f 6/26/10 1/27/11 4/28/12 
f 1/29/13 6/30/14 7/31/15 
f 7/32/16 2/33/17 1/1/18 
f 2/34/19 7/35/20 8/36/21 
f 8/37/22 3/38/23 2/2/24 
f 3/39/25 8/40/26 5/41/27 
f 5/42/28 4/4/29 3/3/30 
f 12/43/31 9/44/32 6/45/33 
f 12/46/34 6/47/35 5/48/36 
f 11/49/37 12/50/38 5/51/39 
f 11/52/40 5/5/41 8/53/42 
f 10/54/43 11/55/44 8/56/45 
f 10/57/46 8/8/47 7/58/48 
f 9/59/49 10/60/50 7/61/51 
f 6/6/52 9/62/53 7/7/54 
f 14/63/55 15/64/56 16/65/57 
f 16/66/58 13/67/59 14/68/60 
f 12/69/61 14/70/62 13/71/63 
f 13/72/64 9/73/65 12/74/66 
f 9/75/67 13/13/68 16/76/69 
f 16/77/70 10/78/71 9/9/72 
f 10/79/73 16/16/74 15/80/75 
f 15/81/76 11/82/77 10/10/78 
f 11/83/79 15/15/80 14/84/81 
f 14/14/82 12/12/83 11/11/84 
# 28 faces

